# Blender v2.77 (sub 0) OBJ File: ''
# www.blender.org
mtllib arwing SNES.mtl
o Arwing_SNES_Vert.001
v 0.737129 0.199671 0.000000
v 0.000000 0.660376 0.000000
v -0.737129 0.199671 0.000000
v 0.000000 0.015388 0.000000
v 2.000000 0.500000 2.000000
v 3.000000 3.000000 3.000000
v 2.000000 -0.500000 -2.000000
v -2.000000 0.500000 2.000000
v -3.000000 3.000000 3.000000
v -2.000000 -0.500000 -2.000000
v 2.010000 0.500000 2.000000
v 2.010000 -0.500000 -2.000000
v 3.010000 3.000000 3.000000
v -1.990000 0.500000 2.000000
v -1.990000 -0.500000 -2.000000
v -2.990000 3.000000 3.000000
v 0.000000 0.625000 2.000000
v 0.000000 1.250000 0.000000
v -2.000000 0.000000 0.000000
v 2.000000 0.000000 0.000000
v 0.000000 0.000001 -8.000000
v 0.000000 -0.500000 -0.000000
v 0.000000 -0.000000 1.500000
v -9.000000 0.249999 5.000000
v -2.500000 -0.500000 -1.500000
v -4.000000 0.500000 -2.000000
v 9.000000 0.249999 5.000000
v 2.500000 -0.500000 -1.500000
v 4.000000 0.500000 -2.000000
v 0.000000 0.621200 1.983500
v -1.980000 0.002450 0.003500
v 0.000000 1.239950 0.003500
v 1.980000 0.002450 0.003500
v 0.000000 -0.492550 0.003500
v 0.000000 0.002450 1.488500
v 0.000000 0.656222 0.003500
v 0.729758 0.200124 0.003500
v -0.729758 0.200124 0.003500
v 0.000000 0.017684 0.003500
vn -0.0000 -0.0000 1.0000
vn -0.5123 0.8197 0.2562
vn 0.5123 0.8197 0.2562
vn 0.5254 0.8407 -0.1314
vn -0.5254 0.8407 -0.1314
vn 0.2308 -0.9231 0.3077
vn -0.2308 -0.9231 0.3077
vn -0.2421 -0.9684 -0.0605
vn 0.2421 -0.9684 -0.0605
vn 0.1555 -0.9515 0.2653
vn -0.4391 -0.8303 -0.3433
vn 0.1231 0.9847 0.1231
vn 0.5959 0.6810 -0.4256
vn -0.1555 -0.9515 0.2653
vn 0.4391 -0.8303 -0.3433
vn -0.1231 0.9847 0.1231
vn -0.5959 0.6810 -0.4256
vn 0.5123 -0.8197 -0.2562
vn -0.5123 -0.8197 -0.2562
vn -0.2308 0.9231 -0.3077
vn 0.2308 0.9231 -0.3077
vn -0.9091 0.4041 -0.1010
vn -0.9091 -0.4041 0.1010
vn 0.9091 -0.4041 0.1010
vn 0.9091 0.4041 -0.1010
usemtl Material.002
s 1
f 1//1 2//1 3//1 4//1
usemtl Material.001
s off
f 17//2 18//2 19//2
f 20//3 18//3 17//3
f 18//4 20//4 21//4
f 21//5 19//5 18//5
f 22//6 20//6 23//6
f 22//7 23//7 19//7
f 21//8 22//8 19//8
f 22//9 21//9 20//9
f 24//10 25//10 19//10
f 24//11 26//11 25//11
f 26//12 24//12 19//12
f 26//13 19//13 25//13
f 27//14 20//14 28//14
f 27//15 28//15 29//15
f 29//16 20//16 27//16
f 29//17 28//17 20//17
f 30//18 31//18 32//18
f 33//19 30//19 32//19
f 34//20 35//20 33//20
f 34//21 31//21 35//21
f 36//1 37//1 33//1 32//1
f 38//1 36//1 32//1 31//1
f 37//1 39//1 34//1 33//1
f 39//1 38//1 31//1 34//1
usemtl Material
f 5//22 6//22 7//22
f 8//23 9//23 10//23
f 11//24 12//24 13//24
f 14//25 15//25 16//25
